<?xml version="1.0" standalone="no"?>
<!DOCTYPE svg PUBLIC "-//W3C//DTD SVG 20010904//EN"
 "http://www.w3.org/TR/2001/REC-SVG-20010904/DTD/svg10.dtd">
<svg version="1.0" xmlns="http://www.w3.org/2000/svg"
 width="900.000000pt" height="900.000000pt" viewBox="0 0 900.000000 900.000000"
 preserveAspectRatio="xMidYMid meet">
<metadata>
Created by potrace 1.11, written by Peter Selinger 2001-2013
</metadata>
<g transform="translate(0.000000,900.000000) scale(0.100000,-0.100000)"
fill="#000000" stroke="none">
<path d="M316 8641 c-4 -6 -10 -10 -14 -7 -4 2 -16 -6 -27 -17 -11 -11 -15
-18 -10 -15 6 3 17 -1 25 -10 13 -14 12 -15 -3 -9 -9 3 -19 1 -23 -5 -4 -6 -3
-8 4 -4 6 3 13 2 17 -4 3 -5 0 -10 -7 -10 -9 0 -9 -3 2 -10 13 -9 13 -10 0
-10 -13 0 -13 -1 0 -10 12 -8 12 -10 -5 -10 -16 0 -17 -2 -5 -9 8 -6 19 -7 25
-5 5 3 -1 -4 -14 -15 l-23 -21 23 -1 c23 0 23 -1 4 -9 -13 -6 -15 -9 -5 -9 13
-1 13 -2 0 -11 -13 -9 -13 -10 0 -10 13 0 13 -1 0 -10 -10 -6 -11 -10 -2 -10
6 0 12 -5 12 -11 0 -5 -4 -7 -10 -4 -5 3 -10 1 -10 -4 0 -6 6 -11 13 -11 8 0
7 -4 -3 -10 -14 -9 -7 -14 13 -11 5 1 6 -3 2 -9 -3 -6 -12 -7 -18 -3 -7 4 -5
-2 3 -12 9 -11 10 -16 3 -11 -7 4 -13 2 -13 -3 0 -6 4 -11 8 -11 5 0 9 -7 9
-15 0 -10 -4 -12 -12 -5 -8 7 -12 5 -12 -5 0 -14 10 -19 32 -16 6 1 -1 -8 -14
-19 l-23 -20 23 -1 c23 0 23 -1 4 -9 -13 -6 -15 -9 -5 -9 13 -1 13 -2 0 -11
-13 -9 -13 -10 0 -10 13 0 13 -1 0 -10 -10 -6 -11 -10 -2 -10 6 0 12 -5 12
-11 0 -5 -4 -7 -10 -4 -5 3 -10 1 -10 -4 0 -6 6 -11 13 -11 9 0 8 -3 -2 -9
-11 -7 -10 -11 5 -21 18 -11 18 -11 0 -6 -17 6 -17 5 -5 -11 9 -11 10 -14 2
-9 -7 4 -13 2 -13 -3 0 -6 6 -11 13 -11 9 0 8 -3 -2 -9 -11 -7 -11 -9 0 -14
10 -4 10 -6 2 -6 -7 -1 -13 -6 -13 -12 0 -5 4 -7 10 -4 6 3 10 1 10 -4 0 -6
-6 -11 -12 -11 -9 0 -8 -4 2 -10 14 -9 7 -15 -14 -11 -5 1 -4 -5 4 -13 7 -9 9
-16 5 -16 -4 0 -2 -6 4 -14 9 -11 9 -16 0 -21 -8 -6 -8 -10 2 -16 11 -6 11
-11 1 -21 -14 -14 -16 -32 -2 -23 6 3 10 1 10 -4 0 -6 -6 -11 -12 -11 -9 0 -8
-4 2 -10 14 -9 7 -15 -14 -11 -5 1 -4 -5 4 -13 7 -9 9 -16 5 -16 -4 0 -2 -6 4
-14 9 -11 9 -16 0 -21 -8 -6 -8 -10 2 -15 10 -7 10 -11 0 -24 -11 -13 -11 -16
0 -16 11 0 11 -2 -1 -10 -10 -6 -11 -10 -2 -10 6 0 12 -5 12 -11 0 -5 -4 -7
-10 -4 -5 3 -10 1 -10 -4 0 -6 6 -11 13 -11 8 0 7 -4 -3 -10 -14 -9 -7 -14 13
-11 5 1 6 -3 2 -9 -3 -6 -12 -7 -18 -3 -7 4 -5 -2 3 -12 9 -11 10 -16 3 -11
-7 4 -13 2 -13 -3 0 -6 4 -11 8 -11 5 0 9 -7 9 -15 0 -10 -4 -12 -12 -5 -8 7
-12 5 -12 -5 0 -14 10 -19 32 -16 6 1 -1 -8 -14 -19 l-23 -20 23 -1 c23 0 23
-1 4 -9 -13 -6 -15 -9 -5 -9 13 -1 13 -2 0 -11 -13 -9 -13 -10 0 -10 13 0 13
-1 0 -10 -10 -6 -11 -10 -2 -10 6 0 12 -5 12 -11 0 -5 -4 -7 -10 -4 -5 3 -10
1 -10 -4 0 -6 6 -11 13 -11 8 0 7 -4 -3 -10 -14 -9 -7 -14 13 -11 5 1 6 -3 2
-9 -3 -6 -12 -7 -18 -3 -7 4 -5 -2 3 -12 9 -11 10 -16 3 -11 -7 4 -13 2 -13
-3 0 -6 4 -11 8 -11 5 0 9 -7 9 -15 0 -10 -4 -12 -12 -5 -8 7 -12 5 -12 -5 0
-14 10 -19 32 -16 6 1 -1 -8 -14 -19 l-23 -20 23 -1 c23 0 23 -1 4 -9 -13 -6
-15 -9 -5 -9 13 -1 13 -2 0 -11 -13 -9 -13 -10 0 -10 13 0 13 -1 0 -10 -10 -6
-11 -10 -2 -10 6 0 12 -5 12 -11 0 -5 -4 -7 -10 -4 -5 3 -10 2 -10 -4 0 -5 6
-12 13 -14 10 -4 10 -6 0 -6 -7 -1 -13 -6 -13 -12 0 -5 6 -7 12 -3 9 5 9 2 -1
-9 -12 -16 -8 -22 12 -18 5 1 5 -3 2 -9 -4 -6 -13 -9 -21 -6 -8 3 -11 0 -7 -9
3 -8 9 -13 13 -10 5 3 12 1 15 -5 4 -6 1 -9 -6 -8 -6 2 -14 -3 -17 -11 -3 -8
0 -11 7 -7 6 4 11 2 11 -3 0 -6 -6 -11 -12 -11 -9 0 -8 -4 2 -10 14 -9 7 -15
-14 -11 -5 1 -4 -5 4 -13 7 -9 9 -16 5 -16 -4 0 -2 -6 4 -14 9 -11 9 -16 0
-21 -8 -6 -8 -10 2 -16 11 -6 11 -11 1 -21 -14 -14 -16 -32 -2 -23 6 3 10 1
10 -4 0 -6 -6 -11 -12 -11 -9 0 -8 -4 2 -10 14 -9 7 -15 -14 -11 -5 1 -4 -5 4
-13 7 -9 9 -16 5 -16 -4 0 -2 -6 4 -14 9 -11 9 -16 0 -21 -8 -6 -8 -10 2 -15
10 -7 10 -11 0 -24 -11 -13 -11 -16 0 -16 11 0 11 -2 -1 -10 -10 -6 -11 -10
-2 -10 6 0 12 -5 12 -11 0 -5 -4 -7 -10 -4 -6 3 -10 1 -10 -4 0 -6 6 -11 13
-11 8 0 7 -4 -3 -10 -14 -9 -7 -14 13 -11 5 1 6 -3 2 -9 -3 -6 -12 -7 -18 -3
-7 4 -5 -2 3 -12 9 -11 10 -16 2 -11 -6 4 -12 2 -12 -3 0 -6 4 -11 8 -11 5 0
9 -7 9 -15 0 -10 -4 -12 -12 -5 -8 7 -12 5 -12 -5 0 -14 10 -19 32 -16 6 1 -1
-8 -14 -19 l-23 -20 23 -1 c23 0 23 -1 4 -9 -13 -6 -15 -9 -5 -9 13 -1 13 -2
0 -11 -13 -9 -13 -10 0 -10 13 0 13 -1 0 -10 -10 -6 -11 -10 -2 -10 6 0 12 -5
12 -11 0 -5 -4 -7 -10 -4 -5 3 -10 1 -10 -4 0 -6 6 -11 13 -11 8 0 7 -4 -3
-10 -14 -9 -7 -14 13 -11 5 1 6 -3 2 -9 -3 -6 -12 -7 -18 -3 -7 4 -5 -2 3 -12
9 -11 10 -16 3 -11 -7 4 -13 2 -13 -3 0 -6 4 -11 8 -11 5 0 9 -7 9 -15 0 -10
-4 -12 -12 -5 -8 7 -12 5 -12 -5 0 -14 10 -19 32 -16 6 1 -1 -8 -14 -19 l-23
-20 23 -1 c23 0 23 -1 4 -9 -13 -6 -15 -9 -5 -9 13 -1 13 -2 0 -11 -13 -9 -13
-10 0 -10 13 0 13 -1 0 -10 -10 -6 -11 -10 -2 -10 6 0 12 -5 12 -11 0 -5 -4
-7 -10 -4 -5 3 -10 1 -10 -4 0 -6 6 -11 13 -11 9 0 8 -3 -2 -9 -11 -7 -10 -11
5 -21 18 -11 18 -11 0 -6 -17 6 -17 5 -5 -11 9 -11 10 -14 2 -9 -7 4 -13 2
-13 -3 0 -6 6 -11 13 -11 9 0 8 -3 -2 -9 -11 -7 -11 -9 0 -14 10 -4 10 -6 2
-6 -7 -1 -13 -6 -13 -12 0 -5 4 -7 10 -4 6 3 10 1 10 -4 0 -6 -6 -11 -12 -11
-9 0 -8 -4 2 -10 14 -9 7 -15 -14 -11 -5 1 -4 -5 4 -13 7 -9 9 -16 5 -16 -4 0
-2 -6 4 -14 9 -11 9 -16 0 -21 -8 -6 -8 -10 2 -16 11 -6 11 -11 1 -21 -14 -14
-16 -32 -2 -23 6 3 10 1 10 -4 0 -6 -6 -11 -12 -11 -9 0 -8 -4 2 -10 14 -9 7
-15 -14 -11 -5 1 -4 -5 4 -13 7 -9 9 -16 5 -16 -4 0 -2 -6 4 -14 9 -11 9 -16
0 -21 -8 -6 -8 -10 2 -15 10 -7 10 -11 0 -24 -11 -13 -11 -16 0 -16 11 0 11
-2 -1 -10 -10 -6 -11 -10 -2 -10 6 0 12 -5 12 -11 0 -5 -4 -7 -10 -4 -6 3 -10
1 -10 -4 0 -6 6 -11 13 -11 8 0 7 -4 -3 -10 -14 -9 -7 -14 13 -11 5 1 6 -3 2
-9 -3 -6 -12 -7 -18 -3 -7 4 -5 -2 3 -12 9 -11 10 -16 3 -11 -7 4 -13 2 -13
-3 0 -6 4 -11 8 -11 5 0 9 -7 9 -15 0 -10 -4 -12 -12 -5 -8 7 -12 5 -12 -5 0
-14 10 -19 32 -16 6 1 -1 -8 -14 -19 l-23 -20 23 -1 c23 0 23 -1 4 -9 -13 -6
-15 -9 -5 -9 13 -1 13 -2 0 -11 -13 -9 -13 -10 0 -10 13 0 13 -1 0 -10 -10 -6
-11 -10 -2 -10 6 0 12 -5 12 -11 0 -5 -4 -7 -10 -4 -5 3 -10 1 -10 -4 0 -6 6
-11 13 -11 8 0 7 -4 -3 -10 -14 -9 -7 -14 13 -11 5 1 6 -3 2 -9 -3 -6 -12 -7
-18 -3 -7 4 -5 -2 3 -12 9 -11 10 -16 3 -11 -7 4 -13 2 -13 -3 0 -6 4 -11 8
-11 5 0 9 -7 9 -15 0 -10 -4 -12 -12 -5 -8 7 -12 5 -12 -5 0 -14 10 -19 32
-16 6 1 -1 -8 -14 -19 l-23 -20 23 -1 c23 0 23 -1 4 -9 -13 -6 -15 -9 -5 -9
13 -1 13 -2 0 -11 -13 -9 -13 -10 0 -10 13 0 13 -1 0 -10 -10 -6 -11 -10 -2
-10 6 0 12 -5 12 -11 0 -5 -4 -7 -10 -4 -5 3 -10 2 -10 -4 0 -5 6 -12 13 -14
9 -4 9 -6 0 -6 -7 -1 -13 -6 -13 -12 0 -5 6 -7 12 -3 9 5 9 2 -1 -9 -12 -16
-8 -22 12 -18 5 1 5 -3 2 -9 -4 -6 -13 -9 -21 -6 -8 3 -11 0 -7 -9 3 -8 9 -13
13 -10 5 3 12 1 15 -5 4 -6 1 -9 -6 -8 -6 2 -14 -3 -17 -11 -3 -8 0 -11 7 -7
6 4 11 2 11 -3 0 -6 -6 -11 -12 -11 -9 0 -8 -4 2 -10 14 -9 7 -15 -14 -11 -5
1 -4 -5 4 -13 7 -9 9 -16 5 -16 -4 0 -2 -6 4 -14 9 -11 9 -16 0 -21 -8 -6 -8
-10 2 -16 11 -6 11 -11 1 -21 -14 -14 -16 -32 -2 -23 5 3 10 1 10 -4 0 -6 -6
-11 -12 -11 -9 0 -8 -4 2 -10 14 -9 7 -15 -14 -11 -5 1 -4 -5 4 -13 7 -9 9
-16 5 -16 -4 0 -2 -6 4 -14 9 -11 9 -16 0 -21 -8 -6 -8 -10 2 -15 10 -7 10
-11 0 -24 -11 -13 -11 -16 0 -16 11 0 11 -2 -1 -10 -10 -6 -11 -10 -2 -10 6 0
12 -5 12 -11 0 -5 -4 -7 -10 -4 -5 3 -10 1 -10 -4 0 -6 6 -11 13 -11 8 0 7 -4
-3 -10 -14 -9 -7 -14 13 -11 5 1 6 -3 2 -9 -3 -6 -12 -7 -18 -3 -7 4 -5 -2 3
-12 9 -11 10 -16 3 -11 -7 4 -13 2 -13 -3 0 -6 4 -11 8 -11 5 0 9 -7 9 -15 0
-10 -4 -12 -12 -5 -8 7 -12 5 -12 -5 0 -14 10 -19 32 -16 6 1 -1 -8 -14 -19
l-23 -20 23 -1 c23 0 23 -1 4 -9 -13 -6 -15 -9 -5 -9 13 -1 13 -2 0 -11 -13
-9 -13 -10 0 -10 13 0 13 -1 0 -10 -10 -6 -11 -10 -2 -10 6 0 12 -5 12 -11 0
-5 -4 -7 -10 -4 -5 3 -10 1 -10 -4 0 -6 6 -11 13 -11 8 0 7 -4 -3 -10 -14 -9
-7 -14 13 -11 5 1 6 -3 2 -9 -3 -6 -12 -7 -18 -3 -7 4 -5 -2 3 -12 9 -11 10
-16 3 -11 -7 4 -13 2 -13 -3 0 -6 4 -11 8 -11 5 0 9 -7 9 -15 0 -10 -4 -12
-12 -5 -8 7 -12 5 -12 -5 0 -14 10 -19 32 -16 6 1 -1 -8 -14 -19 l-23 -20 23
-1 c23 0 23 -1 4 -9 -13 -6 -15 -9 -5 -9 13 -1 13 -2 0 -11 -13 -9 -13 -10 0
-10 13 0 13 -1 0 -10 -10 -6 -11 -10 -2 -10 6 0 12 -5 12 -11 0 -5 -4 -7 -10
-4 -5 3 -10 1 -10 -4 0 -6 6 -11 13 -11 9 0 8 -3 -2 -9 -11 -7 -10 -11 5 -21
18 -11 18 -11 0 -6 -17 6 -17 5 -5 -11 9 -11 10 -14 1 -9 -6 4 -12 2 -12 -3 0
-6 6 -11 13 -11 9 0 8 -3 -2 -9 -11 -7 -11 -9 0 -14 10 -4 10 -6 2 -6 -7 -1
-13 -6 -13 -12 0 -5 4 -7 10 -4 5 3 10 1 10 -4 0 -6 -6 -11 -12 -11 -9 0 -8
-4 2 -10 14 -9 7 -15 -14 -11 -5 1 -4 -5 4 -13 7 -9 9 -16 5 -16 -4 0 -2 -6 4
-14 9 -11 9 -16 0 -21 -8 -6 -8 -10 2 -16 11 -6 11 -11 1 -21 -14 -14 -16 -32
-2 -23 5 3 10 1 10 -4 0 -6 -6 -11 -12 -11 -9 0 -8 -4 2 -10 14 -9 7 -15 -14
-11 -5 1 -4 -5 4 -13 7 -9 9 -16 5 -16 -4 0 -2 -6 4 -14 9 -11 9 -16 0 -21 -8
-6 -8 -10 2 -15 10 -7 10 -11 0 -24 -11 -13 -11 -16 0 -16 11 0 11 -2 -1 -10
-10 -6 -11 -10 -2 -10 6 0 12 -5 12 -11 0 -5 -4 -7 -10 -4 -5 3 -10 1 -10 -4
0 -6 6 -11 13 -11 8 0 7 -4 -3 -10 -14 -9 -7 -14 13 -11 5 1 6 -3 2 -9 -3 -6
-12 -7 -18 -3 -7 4 -5 -2 3 -12 9 -11 10 -16 3 -11 -7 4 -13 2 -13 -3 0 -6 4
-11 8 -11 5 0 9 -7 9 -15 0 -10 -4 -12 -12 -5 -8 7 -12 5 -12 -5 0 -14 10 -19
32 -16 6 1 -1 -8 -14 -19 l-23 -20 23 -1 c23 0 23 -1 4 -9 -13 -6 -15 -9 -5
-9 13 -1 13 -2 0 -11 -13 -9 -13 -10 0 -10 13 0 13 -1 0 -10 -10 -6 -11 -10
-2 -10 6 0 12 -5 12 -11 0 -5 -4 -7 -10 -4 -5 3 -10 1 -10 -4 0 -6 6 -11 13
-11 8 0 7 -4 -3 -10 -14 -9 -7 -14 13 -11 5 1 6 -3 2 -9 -3 -6 -12 -7 -18 -3
-7 4 -5 -2 3 -12 9 -11 10 -16 3 -11 -7 4 -13 2 -13 -3 0 -6 4 -11 8 -11 5 0
9 -7 9 -15 0 -10 -4 -12 -12 -5 -8 7 -12 5 -12 -5 0 -14 10 -19 32 -16 6 1 -1
-8 -14 -19 l-23 -20 23 -1 c23 0 23 -1 4 -9 -13 -6 -15 -9 -5 -9 13 -1 13 -2
0 -11 -13 -9 -13 -10 0 -10 13 0 13 -1 0 -10 -10 -6 -11 -10 -2 -10 6 0 12 -5
12 -11 0 -5 -5 -7 -10 -4 -6 3 -10 2 -10 -4 0 -5 6 -12 13 -14 10 -4 10 -6 0
-6 -7 -1 -13 -6 -13 -12 0 -5 6 -7 13 -3 8 5 8 2 -2 -9 -12 -16 -8 -22 12 -18
5 1 5 -3 2 -9 -4 -6 -13 -9 -21 -6 -8 3 -11 0 -7 -9 3 -8 9 -13 13 -10 5 3 12
1 15 -5 4 -6 1 -9 -6 -8 -6 2 -14 -3 -17 -11 -3 -8 0 -11 7 -7 6 4 11 2 11 -3
0 -6 -6 -11 -12 -11 -9 0 -8 -4 2 -10 14 -9 7 -15 -14 -11 -5 1 -4 -5 4 -13 7
-9 9 -16 5 -16 -4 0 -2 -6 4 -14 9 -11 9 -16 0 -21 -8 -6 -8 -10 2 -16 11 -6
11 -11 1 -21 -14 -14 -16 -32 -2 -23 5 3 10 1 10 -4 0 -6 -6 -11 -12 -11 -9 0
-8 -4 2 -10 14 -9 7 -15 -14 -11 -5 1 -4 -5 4 -13 7 -9 9 -16 5 -16 -4 0 -2
-6 4 -14 9 -11 9 -16 0 -21 -8 -6 -8 -10 2 -15 10 -7 10 -11 0 -24 -11 -13
-11 -16 0 -16 11 0 11 -2 -1 -10 -10 -6 -11 -10 -2 -10 6 0 12 -5 12 -11 0 -5
-4 -7 -10 -4 -5 3 -10 1 -10 -4 0 -6 6 -11 13 -11 8 0 7 -4 -3 -10 -14 -9 -7
-14 13 -11 5 1 6 -3 2 -9 -3 -6 -12 -7 -18 -3 -7 4 -5 -2 3 -12 9 -11 10 -16
3 -11 -7 4 -13 2 -13 -3 0 -6 4 -11 8 -11 5 0 9 -7 9 -15 0 -10 -4 -12 -12 -5
-8 7 -12 5 -12 -5 0 -14 10 -19 32 -16 6 1 -1 -8 -14 -19 l-23 -20 23 -1 c23
0 23 -1 4 -9 -13 -6 -15 -9 -5 -9 13 -1 13 -2 0 -11 -13 -9 -13 -10 0 -10 13
0 13 -1 0 -10 -10 -6 -11 -10 -2 -10 6 0 12 -5 12 -11 0 -5 -4 -7 -10 -4 -5 3
-10 1 -10 -4 0 -6 6 -11 13 -11 8 0 7 -4 -3 -10 -14 -9 -7 -14 13 -11 5 1 6
-3 2 -9 -3 -6 -12 -7 -18 -3 -7 4 -5 -2 3 -12 9 -11 10 -16 3 -11 -7 4 -13 2
-13 -3 0 -6 4 -11 8 -11 5 0 9 -7 9 -15 0 -10 -4 -12 -12 -5 -8 7 -12 5 -12
-5 0 -14 10 -19 32 -16 6 1 -1 -8 -14 -19 l-23 -20 23 -1 c23 0 23 -1 4 -9
-13 -6 -15 -9 -5 -9 13 -1 13 -2 0 -11 -13 -9 -13 -10 0 -10 13 0 13 -1 0 -10
-10 -6 -11 -10 -2 -10 6 0 12 -5 12 -11 0 -5 -4 -7 -10 -4 -5 3 -10 1 -10 -4
0 -6 6 -11 13 -11 9 0 8 -3 -2 -9 -11 -7 -10 -11 5 -21 18 -11 18 -11 0 -6
-17 6 -17 5 -5 -11 9 -11 10 -14 2 -9 -7 4 -13 2 -13 -3 0 -6 6 -11 13 -11 9
0 8 -3 -2 -9 -11 -7 -11 -9 0 -14 10 -4 10 -6 2 -6 -7 -1 -13 -6 -13 -12 0 -5
4 -7 10 -4 5 3 10 1 10 -4 0 -6 -6 -11 -12 -11 -9 0 -8 -4 2 -10 14 -9 7 -15
-14 -11 -5 1 -4 -5 4 -13 7 -9 9 -16 5 -16 -4 0 -2 -6 4 -14 9 -11 9 -16 0
-21 -8 -6 -8 -10 2 -16 11 -6 11 -11 1 -21 -14 -14 -16 -32 -2 -23 5 3 10 1
10 -4 0 -6 -6 -11 -12 -11 -9 0 -8 -4 2 -10 14 -9 7 -15 -14 -11 -5 1 -4 -5 4
-13 7 -9 9 -16 5 -16 -4 0 -2 -6 4 -14 9 -11 9 -16 0 -21 -8 -6 -8 -10 2 -15
10 -7 10 -11 0 -24 -11 -13 -11 -16 0 -16 11 0 11 -2 -1 -10 -10 -6 -11 -10
-2 -10 6 0 12 -5 12 -11 0 -5 -4 -7 -10 -4 -5 3 -10 1 -10 -4 0 -6 6 -11 13
-11 8 0 7 -4 -3 -10 -14 -9 -7 -14 13 -11 5 1 6 -3 2 -9 -3 -6 -12 -7 -18 -3
-7 4 -5 -2 3 -12 9 -11 10 -16 3 -11 -7 4 -13 2 -13 -3 0 -6 4 -11 8 -11 5 0
9 -7 9 -15 0 -10 -4 -12 -12 -5 -8 7 -12 5 -12 -5 0 -14 10 -19 32 -16 6 1 -1
-8 -14 -19 l-23 -20 23 -1 c23 0 23 -1 4 -9 -13 -6 -15 -9 -5 -9 13 -1 13 -2
0 -11 -13 -9 -13 -10 0 -10 13 0 13 -1 0 -10 -10 -6 -11 -10 -2 -10 6 0 12 -5
12 -11 0 -5 -4 -7 -10 -4 -5 3 -10 1 -10 -4 0 -6 6 -11 13 -11 8 0 7 -4 -3
-10 -14 -9 -7 -14 13 -11 5 1 6 -3 2 -9 -3 -6 -12 -7 -18 -3 -7 4 -5 -2 3 -12
9 -11 10 -16 3 -11 -7 4 -13 2 -13 -3 0 -6 4 -11 8 -11 5 0 9 -7 9 -15 0 -10
-4 -12 -12 -5 -8 7 -12 5 -12 -5 0 -14 10 -19 32 -16 6 1 -1 -8 -14 -19 l-23
-20 23 -1 c23 0 23 -1 4 -9 -13 -6 -15 -9 -5 -9 13 -1 13 -2 0 -11 -13 -9 -13
-10 0 -10 13 0 13 -1 0 -10 -10 -6 -11 -10 -2 -10 6 0 12 -5 12 -11 0 -5 -4
-7 -10 -4 -5 3 -10 2 -10 -4 0 -5 6 -12 13 -14 10 -4 10 -6 0 -6 -7 -1 -13 -6
-13 -12 0 -5 6 -7 13 -3 8 5 8 2 -2 -9 -12 -16 -8 -22 12 -18 5 1 5 -3 2 -9
-4 -6 -13 -9 -21 -6 -8 3 -11 0 -7 -9 3 -8 9 -13 13 -10 5 3 12 1 15 -5 4 -6
1 -9 -6 -8 -6 2 -14 -3 -17 -11 -3 -8 0 -11 7 -7 6 4 11 2 11 -3 0 -6 -6 -11
-12 -11 -9 0 -8 -4 2 -10 14 -9 7 -15 -14 -11 -5 1 -4 -5 4 -13 7 -9 9 -16 5
-16 -4 0 -2 -6 4 -14 9 -11 9 -16 0 -21 -8 -6 -8 -10 2 -16 11 -6 11 -11 1
-21 -14 -14 -16 -32 -2 -23 5 3 10 1 10 -4 0 -6 -6 -11 -12 -11 -9 0 -8 -4 2
-10 14 -9 7 -15 -14 -11 -5 1 -4 -5 4 -13 7 -9 9 -16 5 -16 -4 0 -2 -6 4 -14
9 -11 9 -16 0 -21 -8 -6 -8 -10 2 -15 10 -7 10 -11 0 -24 -11 -13 -11 -16 0
-16 11 0 11 -2 -1 -10 -10 -6 -11 -10 -2 -10 6 0 12 -5 12 -11 0 -5 -4 -7 -10
-4 -5 3 -10 1 -10 -4 0 -6 6 -11 13 -11 8 0 7 -4 -3 -10 -14 -9 -7 -14 13 -11
5 1 6 -3 2 -9 -3 -6 -12 -7 -18 -3 -7 4 -5 -2 3 -12 9 -11 10 -16 3 -11 -7 4
-13 2 -13 -3 0 -6 4 -11 8 -11 5 0 9 -7 9 -15 0 -10 -4 -12 -12 -5 -8 7 -12 5
-12 -5 0 -14 10 -19 32 -16 6 1 -1 -8 -14 -19 l-23 -20 23 -1 c23 0 23 -1 4
-9 -13 -6 -15 -9 -5 -9 13 -1 13 -2 0 -11 -13 -9 -13 -10 0 -10 13 0 13 -1 0
-10 -10 -6 -11 -10 -2 -10 6 0 12 -5 12 -11 0 -5 -4 -7 -10 -4 -5 3 -10 1 -10
-4 0 -6 6 -11 13 -11 8 0 7 -4 -3 -10 -14 -9 -7 -14 13 -11 5 1 6 -3 2 -9 -3
-6 -12 -7 -18 -3 -7 4 -5 -2 3 -12 9 -11 10 -16 3 -11 -7 4 -13 2 -13 -3 0 -6
4 -11 8 -11 5 0 9 -7 9 -15 0 -10 -4 -12 -12 -5 -8 7 -12 5 -12 -5 0 -14 10
-19 32 -16 6 1 -1 -8 -14 -19 l-23 -20 23 -1 c23 0 23 -1 4 -9 -13 -6 -15 -9
-5 -9 13 -1 13 -2 0 -11 -13 -9 -13 -10 0 -10 13 0 13 -1 0 -10 -10 -6 -11
-10 -2 -10 6 0 12 -5 12 -11 0 -5 -4 -7 -10 -4 -6 3 -10 1 -10 -4 0 -6 6 -11
13 -11 8 0 7 -4 -3 -10 -14 -9 -7 -14 13 -11 5 1 6 -3 2 -9 -3 -6 -12 -7 -18
-3 -7 4 -5 -2 3 -12 9 -11 10 -16 2 -11 -6 4 -12 2 -12 -3 0 -6 6 -11 13 -11
8 0 7 -4 -3 -10 -10 -6 -11 -10 -2 -10 6 0 12 -5 12 -11 0 -5 -5 -7 -10 -4 -7
4 -9 -5 -5 -25 4 -20 2 -29 -5 -25 -13 8 0 -26 17 -43 7 -7 13 -11 13 -7 0 3
10 1 21 -6 16 -8 20 -8 14 0 -7 12 47 7 68 -6 6 -3 7 -1 3 5 -9 15 -1 15 26 1
11 -6 18 -7 14 -1 -6 11 67 8 85 -4 7 -4 9 -3 6 3 -8 12 54 10 74 -3 8 -4 9
-3 5 5 -6 9 0 10 20 5 19 -5 25 -4 20 4 -5 8 -2 10 8 6 9 -3 13 -11 10 -16 -5
-7 0 -7 12 0 13 7 25 7 37 0 14 -7 17 -7 13 1 -4 7 9 8 40 4 33 -4 45 -2 40 6
-5 7 -1 9 8 5 9 -3 13 -11 10 -16 -4 -6 0 -6 13 0 12 7 24 7 37 0 14 -8 17 -7
12 1 -5 8 4 9 31 5 21 -3 43 -9 48 -12 6 -3 3 2 -5 13 -15 18 -14 18 19 1 18
-10 30 -13 27 -8 -7 11 56 8 75 -4 8 -4 9 -3 5 4 -10 16 7 15 23 -1 11 -9 13
-9 7 1 -9 15 -1 15 26 1 11 -6 18 -7 14 -1 -8 13 77 10 86 -3 4 -5 10 -2 14 8
6 17 7 17 21 0 8 -10 12 -12 8 -5 -5 9 2 11 26 7 18 -3 37 -9 42 -12 6 -3 7
-1 3 5 -9 15 -1 15 26 1 13 -7 18 -7 14 -1 -7 12 32 10 52 -2 8 -4 12 -1 12
10 0 16 1 16 16 -2 8 -10 13 -14 10 -7 -7 12 54 10 75 -3 8 -4 9 -3 5 5 -6 9
0 10 20 5 19 -5 25 -4 20 4 -5 8 -2 10 8 6 9 -3 13 -11 10 -16 -4 -6 0 -6 13
0 12 7 24 7 37 0 13 -7 17 -7 12 0 -4 8 8 9 40 5 33 -4 45 -2 40 6 -5 7 -1 9
8 5 9 -3 13 -11 10 -16 -4 -6 0 -6 13 0 12 7 24 7 37 0 14 -8 17 -7 12 1 -5 8
4 9 31 5 21 -3 43 -9 48 -12 6 -3 3 2 -5 13 -15 18 -14 18 19 1 18 -10 30 -13
27 -8 -7 11 56 8 75 -4 8 -4 9 -3 5 4 -10 16 7 15 23 -1 11 -9 13 -9 7 1 -9
15 -1 15 26 1 11 -6 18 -7 14 -1 -8 13 77 10 86 -3 4 -5 10 -2 14 8 6 17 7 17
21 0 8 -10 12 -12 8 -5 -5 9 2 11 26 7 18 -3 37 -9 42 -12 6 -3 7 -1 3 5 -9
15 -1 15 26 1 13 -7 18 -7 14 -1 -7 12 32 10 52 -2 8 -4 12 -1 12 10 0 16 1
16 16 -2 8 -10 13 -14 10 -7 -7 12 54 10 75 -3 8 -4 9 -3 5 4 -9 15 -1 15 27
0 21 -10 21 -10 7 7 -14 17 -14 17 19 1 18 -10 30 -13 27 -8 -7 11 56 8 75 -4
8 -4 9 -3 5 4 -10 16 7 15 23 0 11 -11 13 -10 7 0 -9 15 -1 15 26 1 11 -6 18
-7 14 -1 -8 13 77 10 86 -3 4 -5 10 -2 14 8 6 17 7 17 21 0 8 -10 12 -12 8 -5
-5 9 2 11 26 7 18 -3 37 -9 42 -12 6 -3 7 -1 3 5 -9 15 -1 15 26 1 13 -7 18
-7 14 -1 -7 12 32 10 52 -2 8 -4 12 -1 12 10 0 16 1 16 16 -2 8 -10 13 -14 10
-7 -7 12 54 10 75 -3 8 -4 9 -3 5 5 -6 9 0 10 20 5 19 -5 25 -4 20 4 -5 8 -2
10 8 6 9 -3 13 -11 10 -16 -4 -6 0 -6 13 0 12 7 24 7 37 0 13 -7 17 -7 12 0
-4 8 8 9 40 5 33 -4 45 -2 40 6 -5 7 -1 9 8 5 9 -3 13 -11 10 -16 -5 -7 0 -7
12 0 13 7 25 7 37 0 14 -7 17 -7 13 1 -7 11 58 6 79 -7 6 -3 3 2 -5 13 -15 18
-14 18 19 1 18 -10 30 -13 27 -8 -7 11 56 8 75 -4 8 -4 9 -3 5 4 -10 16 7 15
23 0 11 -11 13 -10 7 0 -9 15 -1 15 26 1 11 -6 18 -7 14 -1 -8 13 77 10 86 -3
4 -5 10 -2 14 8 6 17 7 17 21 0 8 -10 12 -12 8 -5 -5 9 2 11 26 7 18 -3 37 -9
42 -12 6 -3 7 -1 3 5 -9 15 -1 15 26 1 13 -7 18 -7 14 -1 -7 12 32 10 52 -2 8
-4 12 -1 12 10 0 16 1 16 16 -2 8 -10 13 -14 10 -7 -7 12 54 10 75 -3 8 -4 9
-3 5 5 -6 9 0 10 20 5 19 -5 25 -4 20 4 -5 8 -2 10 8 6 9 -3 13 -11 10 -16 -4
-6 0 -6 13 0 12 7 24 7 37 0 13 -7 17 -7 12 0 -4 8 8 9 40 5 33 -4 45 -2 40 6
-5 7 -1 9 8 5 9 -3 13 -11 10 -16 -4 -6 0 -6 13 0 12 7 24 7 37 0 14 -8 17 -7
12 1 -5 8 4 9 31 5 21 -3 43 -9 48 -12 6 -3 3 2 -5 13 -15 18 -14 18 19 1 18
-10 30 -13 27 -8 -7 11 56 8 75 -4 8 -4 9 -3 5 4 -10 16 7 15 23 0 11 -11 13
-10 7 0 -9 15 -1 15 26 1 11 -6 18 -7 14 -1 -8 13 77 10 86 -3 4 -5 10 -2 14
8 6 17 7 17 21 0 8 -10 12 -12 8 -5 -5 9 2 11 26 7 18 -3 37 -9 42 -12 6 -3 7
-1 3 5 -9 15 -1 15 26 1 13 -7 18 -7 14 -1 -7 12 32 10 52 -2 8 -4 12 -1 12
10 0 16 1 16 16 -2 8 -10 13 -14 10 -7 -7 12 54 10 75 -3 8 -4 9 -3 5 4 -9 15
-1 15 27 0 21 -10 21 -10 7 7 -14 17 -14 17 19 1 18 -10 30 -13 27 -8 -7 11
56 8 75 -4 8 -4 9 -3 5 4 -10 16 7 15 23 0 11 -11 13 -11 7 0 -9 15 -1 15 26
1 11 -6 18 -7 14 -1 -8 13 77 10 86 -3 4 -5 10 -2 14 8 6 17 7 17 21 0 8 -10
12 -12 8 -5 -5 9 2 11 26 7 18 -3 37 -9 42 -12 6 -3 7 -1 3 5 -9 15 -1 15 26
1 13 -7 18 -7 14 -1 -7 12 32 10 52 -2 8 -4 12 -1 12 10 0 16 1 16 16 -2 8
-10 13 -14 10 -7 -7 12 54 10 75 -3 8 -4 9 -3 5 5 -6 9 0 10 20 5 19 -5 25 -4
20 4 -5 8 -2 10 8 6 9 -3 13 -11 10 -16 -4 -6 0 -6 13 0 12 7 24 7 37 0 13 -7
17 -7 12 0 -4 8 8 9 40 5 33 -4 45 -2 40 6 -5 7 -1 9 8 5 9 -3 13 -11 10 -16
-4 -6 0 -6 13 0 12 7 24 7 37 0 14 -8 17 -7 12 1 -5 8 4 9 31 5 21 -3 43 -9
48 -12 6 -3 3 2 -5 13 -15 18 -14 18 19 1 18 -10 30 -13 27 -8 -7 11 56 8 75
-4 8 -4 9 -3 5 4 -10 16 7 15 23 0 11 -10 13 -10 7 0 -9 15 -1 15 26 1 11 -6
18 -7 14 -1 -8 13 77 10 86 -3 4 -5 10 -2 14 8 6 17 7 17 21 0 8 -10 12 -12 8
-5 -5 9 2 11 26 7 18 -3 37 -9 42 -12 6 -3 7 -1 3 5 -9 15 -1 15 26 1 13 -7
18 -7 14 -1 -7 12 32 10 52 -2 8 -4 12 -1 12 10 0 16 1 16 16 -2 8 -10 13 -14
10 -7 -7 12 54 10 75 -3 8 -4 9 -3 5 5 -6 9 0 10 20 5 19 -5 25 -4 20 4 -5 8
-2 10 8 6 9 -3 13 -11 10 -16 -4 -6 0 -6 13 0 12 7 24 7 37 0 13 -7 17 -7 12
0 -4 8 8 9 40 5 33 -4 45 -2 40 6 -5 7 -1 9 8 5 9 -3 13 -11 10 -16 -4 -6 0
-6 13 0 12 7 24 7 37 0 14 -8 17 -7 12 1 -5 8 4 9 31 5 21 -3 43 -9 48 -12 6
-3 3 2 -5 13 -15 18 -14 18 19 1 18 -10 30 -13 27 -8 -7 11 56 8 75 -4 8 -4 9
-3 5 4 -10 16 7 15 23 0 11 -10 13 -10 7 0 -9 15 -1 15 26 1 11 -6 18 -7 14
-1 -8 13 77 10 86 -3 4 -5 10 -2 14 8 6 17 7 17 21 0 8 -10 12 -12 8 -5 -5 9
2 11 26 7 18 -3 37 -9 42 -12 6 -3 7 -1 3 5 -9 15 -1 15 26 1 13 -7 18 -7 14
-1 -7 12 32 10 52 -2 8 -4 12 -1 12 10 0 16 1 16 16 -2 8 -10 13 -14 10 -7 -7
12 54 10 75 -3 8 -4 9 -3 5 4 -9 15 -1 15 27 0 21 -10 21 -10 7 7 -14 17 -14
17 19 1 18 -10 30 -13 27 -8 -7 11 56 8 75 -4 8 -4 9 -3 5 4 -10 16 7 15 23 0
11 -10 13 -10 7 0 -9 15 -1 15 26 1 11 -6 18 -7 14 -1 -8 13 77 10 86 -3 4 -5
10 -2 14 8 6 17 7 17 21 0 8 -10 12 -12 8 -5 -5 9 2 11 26 7 18 -3 37 -9 42
-12 6 -3 7 -1 3 5 -9 15 -1 15 26 1 13 -7 18 -7 14 -1 -7 12 32 10 52 -2 8 -4
12 -1 12 10 0 16 1 16 16 -2 8 -10 13 -14 10 -7 -7 12 54 10 75 -3 8 -4 9 -3
5 5 -6 9 0 10 20 5 19 -5 25 -4 20 4 -5 8 -2 10 8 6 9 -3 13 -11 10 -16 -4 -6
0 -6 13 0 12 7 24 7 37 0 10 -6 16 -6 13 -1 -7 11 104 9 123 -2 10 -6 12 -4 6
10 -5 13 -3 15 6 8 14 -11 46 -9 56 3 4 4 -1 4 -11 1 -12 -5 -16 -3 -11 5 4 7
9 21 10 32 1 12 4 31 7 44 5 20 3 22 -16 17 -19 -5 -20 -5 -4 5 9 6 17 16 17
21 0 6 -3 8 -8 6 -4 -3 -7 5 -7 18 0 19 3 21 14 12 12 -10 12 -9 2 11 -7 13
-10 30 -7 38 3 7 -3 18 -12 23 -10 6 -12 11 -4 11 7 0 11 11 10 29 -1 16 4 37
12 47 9 11 10 15 3 10 -7 -4 -13 -4 -14 1 -5 56 -4 62 10 50 12 -10 13 -9 2
11 -6 12 -8 22 -4 22 4 0 0 7 -10 14 -16 12 -16 14 -1 20 14 5 14 9 3 23 -12
15 -12 16 6 9 16 -6 18 -5 8 5 -15 15 -17 33 -4 25 5 -4 7 3 4 15 -4 14 -8 17
-13 8 -5 -7 -7 -2 -7 14 2 20 5 23 16 14 12 -10 12 -9 2 11 -7 13 -10 30 -7
38 3 7 -3 18 -12 23 -12 7 -13 10 -3 11 9 0 12 8 9 25 -3 14 1 33 8 42 16 22
17 33 3 33 -5 0 -7 -4 -4 -10 4 -6 -1 -7 -11 -3 -15 5 -15 7 0 15 9 5 16 14
16 19 0 6 -3 8 -7 6 -5 -3 -8 5 -8 18 0 19 3 21 14 12 12 -10 12 -9 2 11 -7
13 -10 30 -7 38 3 7 -3 18 -12 23 -10 6 -12 11 -4 11 7 0 11 11 10 29 -1 16 4
37 12 47 9 11 10 15 3 10 -7 -4 -13 -4 -14 1 -5 56 -4 62 10 50 12 -10 13 -9
2 11 -7 12 -16 20 -22 17 -5 -4 -9 -2 -9 3 0 6 7 13 16 16 10 4 13 2 8 -6 -5
-7 -3 -8 6 -3 10 6 8 12 -9 27 -13 10 -18 18 -12 18 5 0 16 10 22 23 12 21 11
21 -7 7 -18 -15 -18 -14 0 14 10 16 13 25 7 22 -11 -7 -16 8 -11 29 2 6 2 18
2 28 0 11 4 15 11 10 7 -3 4 2 -5 13 -16 18 -16 22 -2 42 16 24 6 30 -15 10
-11 -11 -12 -10 -5 2 9 15 10 20 13 41 0 5 5 7 11 4 15 -9 0 28 -17 41 -11 10
-11 13 3 18 14 5 14 9 3 23 -12 15 -12 16 6 9 16 -6 18 -5 8 5 -15 15 -17 33
-4 25 5 -4 7 3 4 15 -4 14 -8 17 -13 8 -5 -7 -7 -2 -7 14 2 20 5 23 16 14 12
-10 12 -9 2 11 -7 13 -10 30 -7 38 3 7 -3 18 -12 23 -12 7 -13 10 -3 11 9 0
12 8 9 25 -3 14 1 33 8 42 16 22 17 33 3 33 -5 0 -7 -4 -4 -10 4 -6 -1 -7 -11
-3 -15 5 -15 7 0 15 9 5 16 14 16 19 0 6 -3 8 -7 6 -5 -3 -8 5 -8 18 0 19 3
21 14 12 12 -10 12 -9 2 11 -7 13 -10 30 -7 38 3 7 -3 18 -12 23 -10 6 -12 11
-4 11 7 0 11 11 10 29 -1 16 4 37 12 47 9 11 10 15 3 10 -7 -4 -13 -4 -14 1
-5 56 -4 62 10 50 12 -10 13 -9 2 11 -7 12 -16 20 -22 17 -5 -4 -9 -2 -9 3 0
6 7 13 16 16 10 4 13 2 8 -6 -5 -7 -3 -8 6 -3 10 6 8 12 -9 27 -13 10 -18 18
-12 18 5 0 16 10 22 22 12 22 11 22 -7 8 -18 -15 -18 -14 0 14 10 16 13 25 7
22 -11 -7 -16 8 -11 29 2 6 2 18 2 28 0 11 4 15 11 10 7 -3 4 2 -5 13 -16 18
-16 22 -2 42 16 24 7 30 -16 10 -12 -11 -12 -10 -3 2 11 15 13 20 13 41 0 5 4
8 8 5 17 -10 4 48 -13 60 -10 8 -14 14 -7 14 6 0 17 10 23 23 12 21 11 21 -7
7 -18 -15 -18 -14 0 14 10 16 13 25 7 22 -11 -7 -16 8 -11 29 2 6 2 18 2 28 0
11 4 15 11 10 7 -3 4 2 -5 13 -16 18 -16 22 -2 42 16 24 7 30 -16 10 -12 -11
-12 -10 -3 2 11 15 13 20 13 41 0 5 4 7 10 4 15 -9 0 28 -17 41 -11 10 -11 13
3 18 14 5 14 9 3 23 -12 15 -12 16 6 9 16 -6 18 -5 8 5 -15 15 -17 33 -4 25 5
-4 7 3 4 15 -4 14 -8 17 -13 8 -5 -7 -7 -2 -7 14 2 20 5 23 16 14 12 -10 12
-9 2 11 -7 13 -10 30 -7 38 3 7 -3 18 -12 23 -12 7 -13 10 -3 11 9 0 12 8 9
25 -3 14 1 33 8 42 16 22 17 33 3 33 -5 0 -7 -4 -4 -10 4 -6 -1 -7 -11 -3 -15
5 -15 7 0 15 9 5 16 14 16 19 0 6 -3 8 -8 6 -4 -3 -7 5 -7 18 0 19 3 21 14 12
12 -10 12 -9 2 11 -7 13 -10 30 -7 38 3 7 -3 18 -12 23 -10 6 -12 11 -4 11 7
0 11 11 10 29 -1 16 4 37 12 47 9 11 10 15 3 10 -7 -4 -13 -4 -14 1 -5 56 -4
62 10 50 12 -10 13 -9 2 11 -7 12 -16 20 -22 17 -5 -4 -9 -2 -9 3 0 6 7 13 16
16 10 4 13 2 8 -6 -5 -7 -3 -8 6 -3 10 6 8 12 -9 27 -13 10 -18 18 -12 18 5 0
16 10 22 22 12 22 11 22 -7 8 -18 -15 -18 -14 0 14 10 16 13 25 7 22 -11 -7
-16 8 -11 29 2 6 2 18 2 28 0 11 4 15 11 10 7 -3 4 2 -5 13 -16 18 -16 22 -2
42 16 24 7 30 -16 10 -12 -11 -12 -10 -3 2 11 15 13 20 13 41 0 5 4 7 10 4 15
-9 0 28 -17 41 -11 10 -11 13 3 18 14 5 14 9 3 23 -12 15 -12 16 6 9 16 -6 18
-5 8 5 -15 15 -17 33 -4 25 5 -4 7 3 4 15 -4 14 -8 17 -13 8 -5 -7 -7 -2 -7
14 2 20 5 23 16 14 12 -10 12 -9 2 11 -7 13 -10 30 -7 38 3 7 -3 18 -12 23
-12 7 -13 10 -3 11 9 0 12 8 9 25 -3 14 1 33 8 42 16 22 17 33 3 33 -5 0 -7
-4 -4 -10 4 -6 -1 -7 -11 -3 -15 5 -15 7 0 15 9 5 16 14 16 19 0 6 -3 8 -7 6
-5 -3 -8 5 -8 18 0 19 3 21 14 12 12 -10 12 -9 2 11 -7 13 -10 30 -7 38 3 7
-3 18 -12 23 -10 6 -12 11 -4 11 7 0 11 11 10 29 -1 16 4 37 12 47 9 11 10 15
3 10 -7 -4 -13 -4 -14 1 -5 56 -4 62 10 50 12 -10 13 -9 2 11 -6 12 -8 22 -4
22 4 0 0 7 -10 14 -16 12 -16 14 -1 20 14 5 14 9 3 23 -12 15 -12 16 6 9 16
-6 18 -5 8 5 -15 15 -17 33 -4 25 5 -4 7 3 4 15 -4 14 -8 17 -13 8 -5 -7 -7
-2 -7 14 2 20 5 23 16 14 12 -10 12 -9 2 11 -7 13 -10 30 -7 38 3 7 -3 18 -12
23 -12 7 -13 10 -3 11 9 0 12 8 9 25 -3 14 1 33 8 42 16 22 17 33 3 33 -5 0
-7 -4 -4 -10 4 -6 -1 -7 -11 -3 -15 5 -15 7 0 15 9 5 16 14 16 19 0 6 -3 8 -7
6 -5 -3 -8 5 -8 18 0 19 3 21 14 12 12 -10 12 -9 2 11 -7 13 -10 30 -7 38 3 7
-3 18 -12 23 -10 6 -12 11 -4 11 7 0 11 11 10 29 -1 16 4 37 12 47 9 11 10 15
3 10 -7 -4 -13 -4 -14 1 -5 56 -4 62 10 50 12 -10 13 -9 3 9 -8 14 -8 24 -1
31 8 8 7 13 -2 18 -8 5 -10 4 -5 -3 5 -8 1 -10 -10 -5 -15 5 -15 7 0 15 9 5
14 14 11 19 -4 5 -12 6 -18 2 -7 -4 -7 0 1 10 8 9 11 21 7 26 -4 7 1 9 12 5
17 -5 17 -5 1 9 -15 12 -16 16 -3 33 17 23 19 34 4 34 -5 0 -7 -4 -4 -10 4 -6
-1 -7 -11 -3 -15 5 -15 7 0 15 9 5 16 14 16 19 0 6 -3 8 -7 6 -5 -3 -8 5 -8
18 0 19 3 21 14 12 12 -10 12 -9 2 11 -7 13 -10 30 -7 38 3 7 -3 18 -12 23
-11 7 -12 11 -4 11 7 0 10 5 6 12 -4 7 -3 8 4 4 7 -4 12 -3 12 3 0 5 -4 12 -9
15 -5 4 -8 14 -6 24 2 9 4 21 4 25 1 5 7 5 14 2 6 -4 2 2 -10 13 -20 17 -20
21 -7 26 14 5 14 9 3 23 -12 14 -12 16 2 11 10 -4 16 -1 16 8 0 10 -7 12 -21
9 -19 -5 -19 -5 -3 5 9 6 17 16 17 21 0 6 -3 8 -7 6 -5 -3 -8 5 -8 18 0 19 3
21 14 12 12 -10 12 -9 2 11 -7 13 -10 30 -7 38 3 7 -3 18 -12 24 -14 9 -13 10
8 5 l25 -6 -24 14 c-20 12 -21 15 -7 20 11 5 15 3 10 -5 -5 -7 -3 -8 6 -3 10
6 8 12 -9 27 -13 10 -18 18 -12 18 5 0 16 10 22 23 12 21 11 21 -7 7 -18 -15
-18 -14 0 14 10 16 13 25 7 22 -11 -7 -16 8 -11 29 2 6 2 18 2 28 0 11 4 15
11 10 7 -3 4 2 -5 13 -16 18 -16 22 -2 42 16 24 7 30 -16 10 -12 -11 -12 -10
-3 2 11 15 13 20 13 41 0 5 4 7 10 4 15 -9 0 28 -17 41 -11 10 -11 13 3 18 14
5 14 9 3 23 -12 15 -12 16 6 9 16 -6 18 -5 8 5 -15 15 -17 33 -4 25 5 -4 7 3
4 15 -4 14 -8 17 -13 8 -5 -7 -7 -2 -7 14 2 20 5 23 16 14 12 -10 12 -9 2 11
-7 13 -10 30 -7 38 3 7 -3 18 -12 23 -12 7 -13 10 -3 11 9 0 12 8 9 25 -3 14
1 33 8 42 16 22 17 33 3 33 -5 0 -7 -4 -4 -10 4 -6 -1 -7 -11 -3 -15 5 -15 7
0 15 9 5 16 14 16 19 0 6 -3 8 -8 6 -4 -3 -7 5 -7 18 0 19 3 21 14 12 12 -10
12 -9 2 11 -7 13 -10 30 -7 38 3 7 -3 18 -12 23 -10 6 -12 11 -4 11 7 0 11 11
10 29 -1 16 4 37 12 47 9 11 10 15 3 10 -7 -4 -13 -4 -14 1 -5 56 -4 62 10 50
12 -10 13 -9 2 11 -7 12 -16 20 -22 17 -5 -4 -9 -2 -9 3 0 6 7 13 16 16 10 4
13 2 8 -6 -5 -7 -3 -8 6 -3 10 6 8 12 -9 27 -13 10 -18 18 -12 18 5 0 16 10
22 23 12 21 11 21 -7 7 -18 -15 -18 -14 0 14 10 16 13 25 7 22 -11 -7 -16 8
-11 29 2 6 2 18 2 28 0 11 4 15 11 10 7 -3 4 2 -5 13 -16 18 -16 22 -2 42 16
24 7 30 -16 10 -12 -11 -12 -10 -3 2 11 15 13 20 13 41 0 5 4 8 8 5 10 -6 8
42 -3 51 -4 5 -5 2 -1 -4 5 -9 2 -11 -10 -6 -15 5 -15 7 0 15 9 5 14 14 11 19
-4 5 -12 6 -18 2 -7 -4 -7 0 1 10 8 9 11 21 7 26 -4 7 1 9 12 5 17 -5 17 -5 1
9 -15 12 -16 16 -3 33 17 23 19 34 4 34 -5 0 -7 -4 -4 -10 4 -6 -1 -7 -11 -3
-15 5 -15 7 0 15 9 5 16 14 16 19 0 6 -3 8 -7 6 -5 -3 -8 5 -8 18 0 19 3 21
14 12 12 -10 12 -9 2 11 -7 13 -10 30 -7 38 3 7 -3 18 -12 23 -11 7 -12 11 -4
11 7 0 10 5 6 12 -4 7 -3 8 4 4 7 -4 12 -3 12 3 0 5 -4 12 -9 15 -5 4 -8 14
-6 24 2 9 4 21 4 25 1 5 7 5 14 2 6 -4 2 2 -10 13 -20 17 -20 21 -7 26 14 5
14 9 3 23 -12 14 -12 16 2 11 10 -4 16 -1 16 8 0 10 -7 12 -21 9 -19 -5 -19
-5 -3 5 9 6 17 16 17 21 0 6 -3 8 -7 6 -5 -3 -8 5 -8 18 0 19 3 21 14 12 12
-10 12 -9 2 11 -7 13 -10 30 -7 38 3 8 -1 17 -9 21 -14 5 -13 7 1 18 16 11 16
13 0 22 -17 9 -17 10 -1 17 15 5 15 9 4 23 -12 15 -12 16 6 9 16 -6 18 -5 8 5
-15 15 -17 33 -4 25 5 -4 7 3 4 15 -4 14 -8 17 -13 8 -5 -7 -7 -2 -7 14 2 20
5 23 16 14 12 -10 12 -9 2 11 -7 13 -10 30 -7 38 3 7 -3 18 -12 23 -12 7 -13
10 -3 11 9 0 12 8 9 25 -3 14 1 33 8 42 16 22 17 33 3 33 -5 0 -7 -4 -4 -10 4
-6 -1 -7 -11 -3 -15 5 -15 7 0 15 9 5 16 14 16 19 0 6 -3 8 -7 6 -5 -3 -8 5
-8 18 0 19 3 21 14 12 12 -10 12 -9 2 11 -7 13 -10 30 -7 38 3 7 -3 18 -12 23
-10 6 -12 11 -4 11 7 0 11 11 10 29 -1 16 4 37 12 47 9 11 10 15 3 10 -7 -4
-13 -4 -14 1 -5 56 -4 62 10 50 12 -10 13 -9 2 11 -6 12 -8 22 -4 22 4 0 0 7
-10 14 -16 12 -16 14 -1 20 14 5 14 9 3 23 -12 15 -12 16 6 9 16 -6 18 -5 7 5
-14 15 -16 33 -3 25 5 -4 7 3 4 15 -4 14 -8 17 -13 8 -5 -7 -7 -2 -7 14 2 20
5 23 16 14 12 -10 12 -9 2 11 -6 12 -11 30 -9 40 2 11 -2 16 -12 14 -10 -2 -6
6 10 24 14 15 19 24 11 19 -11 -6 -13 -4 -8 8 4 12 2 14 -10 10 -11 -5 -14 -3
-8 6 6 10 3 11 -14 2 -16 -9 -21 -9 -21 1 0 8 -3 9 -8 3 -10 -14 -32 -17 -32
-5 0 6 -9 6 -25 0 -16 -6 -25 -6 -25 1 0 6 -8 6 -21 -2 -16 -8 -20 -8 -14 1 6
9 2 9 -14 1 -16 -9 -21 -9 -21 1 0 8 -3 9 -8 3 -10 -14 -32 -17 -32 -4 0 8 -4
8 -14 0 -11 -9 -15 -9 -19 1 -4 11 -6 11 -6 0 -1 -8 -7 -10 -18 -5 -22 10 -44
10 -60 0 -8 -5 -13 -3 -13 5 0 9 -3 9 -10 -2 -9 -13 -10 -13 -10 0 0 9 -3 11
-8 5 -9 -13 -32 -18 -32 -7 0 4 -12 7 -27 6 -16 -1 -28 -3 -28 -4 0 -7 -36 -6
-41 1 -3 5 -10 9 -15 9 -6 0 -7 -5 -4 -10 8 -13 -18 -8 -27 5 -5 6 -8 4 -8 -5
0 -13 -1 -13 -10 0 -7 11 -10 11 -10 2 0 -7 -5 -10 -11 -7 -17 11 -59 13 -65
3 -4 -6 -10 -5 -15 3 -7 11 -9 11 -9 -1 0 -13 -1 -13 -10 0 -7 11 -10 11 -10
2 0 -10 -5 -10 -21 -1 -16 8 -20 8 -14 -1 6 -9 2 -9 -14 -1 -16 9 -21 9 -21 0
0 -8 -5 -7 -17 2 -11 10 -14 10 -9 2 4 -7 2 -13 -3 -13 -6 0 -11 6 -11 13 0 9
-2 9 -8 0 -5 -7 -13 -9 -21 -3 -8 4 -24 4 -37 0 -15 -6 -26 -5 -30 1 -4 6 -11
6 -20 -2 -11 -9 -14 -9 -14 1 0 10 -3 10 -15 0 -12 -10 -15 -10 -15 0 0 9 -4
9 -17 -1 -14 -12 -15 -12 -9 -1 7 11 4 12 -13 3 -16 -9 -21 -9 -21 1 0 9 -3 9
-10 -2 -9 -13 -10 -13 -10 0 0 13 -1 13 -10 0 -7 -11 -10 -11 -10 -2 0 10 -5
10 -20 2 -15 -8 -20 -8 -20 1 0 8 -4 8 -15 -1 -12 -10 -15 -10 -15 1 0 9 -3
10 -8 4 -10 -14 -32 -17 -32 -4 0 8 -6 7 -17 -2 -15 -12 -16 -12 -8 1 8 13 7
13 -8 1 -14 -11 -17 -11 -17 0 0 12 -2 12 -9 0 -7 -11 -9 -11 -14 0 -4 11 -6
11 -6 1 -1 -10 -6 -10 -22 -1 -16 8 -20 8 -14 -1 6 -9 2 -9 -14 -1 -16 9 -21
9 -21 0 0 -8 -5 -7 -17 2 -11 10 -14 10 -9 2 4 -7 3 -13 -3 -13 -5 0 -12 6
-14 13 -4 9 -6 9 -6 -1 -1 -7 -6 -10 -12 -7 -17 11 -59 13 -65 3 -4 -6 -10 -5
-15 3 -7 11 -9 11 -9 -1 0 -13 -1 -13 -10 0 -7 11 -10 11 -10 2 0 -10 -5 -10
-21 -1 -16 8 -20 8 -14 -1 6 -9 2 -9 -14 -1 -16 9 -21 9 -21 0 0 -8 -5 -7 -17
2 -11 10 -14 10 -9 2 4 -7 3 -13 -3 -13 -5 0 -12 6 -14 13 -4 9 -6 9 -6 -1 -1
-8 -7 -10 -18 -5 -22 10 -44 10 -60 0 -8 -5 -13 -3 -13 5 0 9 -3 9 -10 -2 -9
-13 -10 -13 -10 0 0 12 -2 12 -9 1 -6 -9 -10 -10 -16 -2 -5 9 -10 9 -21 0 -11
-9 -14 -9 -14 1 0 10 -3 10 -15 0 -12 -10 -15 -10 -15 1 0 9 -3 10 -8 4 -8
-12 -27 -13 -38 -3 -4 4 -13 3 -21 -3 -10 -9 -13 -8 -13 1 0 10 -3 10 -15 0
-12 -10 -15 -10 -15 0 0 9 -4 9 -17 -1 -14 -12 -15 -12 -9 -1 7 11 4 12 -13 3
-16 -9 -21 -9 -21 1 0 9 -3 9 -10 -2 -9 -13 -10 -13 -10 0 0 13 -1 13 -10 0
-7 -11 -10 -11 -10 -2 0 10 -5 10 -20 2 -15 -8 -20 -8 -20 1 0 8 -4 8 -15 -1
-12 -10 -15 -10 -15 1 0 9 -3 10 -8 4 -10 -14 -32 -17 -32 -4 0 8 -4 8 -14 0
-11 -9 -15 -9 -19 1 -4 11 -6 11 -6 0 -1 -8 -7 -10 -18 -5 -22 10 -44 10 -60
0 -8 -5 -13 -3 -13 5 0 9 -3 9 -10 -2 -9 -13 -10 -13 -10 0 0 9 -3 11 -8 5 -9
-13 -32 -18 -32 -7 0 4 -12 7 -27 6 -16 -1 -28 -3 -28 -4 0 -7 -36 -6 -41 1
-3 5 -10 9 -15 9 -6 0 -7 -5 -4 -10 8 -13 -18 -8 -27 5 -5 6 -8 4 -8 -5 0 -13
-1 -13 -10 0 -7 11 -10 11 -10 2 0 -7 -5 -10 -11 -7 -17 11 -59 13 -65 3 -4
-6 -10 -5 -15 3 -7 11 -9 11 -9 -1 0 -13 -1 -13 -10 0 -7 11 -10 11 -10 2 0
-10 -5 -10 -21 -1 -16 8 -20 8 -14 -1 6 -9 2 -9 -14 -1 -16 9 -21 9 -21 0 0
-8 -5 -7 -17 2 -11 10 -14 10 -9 2 4 -7 2 -13 -3 -13 -6 0 -11 6 -11 13 0 9
-2 9 -8 0 -5 -7 -13 -9 -21 -3 -8 4 -24 4 -37 0 -15 -6 -26 -5 -30 1 -4 6 -11
6 -20 -2 -11 -9 -14 -9 -14 1 0 10 -3 10 -15 0 -12 -10 -15 -10 -15 0 0 9 -4
9 -17 -1 -14 -12 -15 -12 -9 -1 7 11 4 12 -13 3 -16 -9 -21 -9 -21 1 0 9 -3 9
-10 -2 -9 -13 -10 -13 -10 0 0 13 -1 13 -10 0 -7 -11 -10 -11 -10 -2 0 10 -5
10 -20 2 -15 -8 -20 -8 -20 1 0 8 -4 8 -15 -1 -12 -10 -15 -10 -15 1 0 9 -3
10 -8 4 -10 -14 -32 -17 -32 -4 0 8 -6 7 -17 -2 -15 -12 -16 -12 -8 1 8 13 7
13 -8 1 -14 -11 -17 -11 -17 0 0 12 -2 12 -9 0 -7 -11 -9 -11 -14 0 -4 11 -6
11 -6 1 -1 -10 -6 -10 -22 -1 -16 8 -20 8 -14 -1 6 -9 2 -9 -14 -1 -16 9 -21
9 -21 0 0 -8 -5 -7 -17 2 -11 10 -14 10 -9 2 4 -7 3 -13 -3 -13 -5 0 -12 6
-14 13 -4 9 -6 9 -6 -1 -1 -7 -6 -10 -12 -7 -17 11 -59 13 -65 3 -4 -6 -10 -5
-15 3 -7 11 -9 11 -9 -1 0 -13 -1 -13 -10 0 -7 11 -10 11 -10 2 0 -10 -5 -10
-21 -1 -16 8 -20 8 -14 -1 6 -9 2 -9 -14 -1 -16 9 -21 9 -21 0 0 -8 -5 -7 -17
2 -11 10 -14 10 -9 2 4 -7 3 -13 -3 -13 -5 0 -12 6 -14 13 -4 9 -6 9 -6 -1 -1
-8 -7 -10 -18 -5 -22 10 -44 10 -60 0 -8 -5 -13 -3 -13 5 0 9 -3 9 -10 -2 -9
-13 -10 -13 -10 0 0 12 -2 12 -9 1 -6 -9 -10 -10 -16 -2 -5 9 -10 9 -21 0 -11
-9 -14 -9 -14 1 0 10 -3 10 -15 0 -12 -10 -15 -10 -15 1 0 9 -3 10 -8 4 -8
-12 -27 -13 -38 -3 -4 4 -13 3 -21 -3 -10 -9 -13 -8 -13 1 0 10 -3 10 -15 0
-12 -10 -15 -10 -15 0 0 9 -4 9 -17 -1 -14 -12 -15 -12 -9 -1 7 11 4 12 -13 3
-16 -9 -21 -9 -21 1 0 9 -3 9 -10 -2 -9 -13 -10 -13 -10 0 0 13 -1 13 -10 0
-7 -11 -10 -11 -10 -2 0 10 -5 10 -20 2 -15 -8 -20 -8 -20 1 0 8 -4 8 -15 -1
-12 -10 -15 -10 -15 1 0 9 -3 10 -8 4 -10 -14 -32 -17 -32 -4 0 8 -4 8 -14 0
-11 -9 -15 -9 -19 1 -4 11 -6 11 -6 0 -1 -8 -7 -10 -18 -5 -22 10 -44 10 -60
0 -8 -5 -13 -3 -13 5 0 9 -3 9 -10 -2 -9 -13 -10 -13 -10 0 0 9 -3 11 -8 5 -9
-13 -32 -18 -32 -7 0 4 -12 7 -27 6 -16 -1 -28 -3 -28 -4 0 -7 -36 -6 -41 1
-3 5 -10 9 -15 9 -6 0 -7 -5 -4 -10 8 -13 -18 -8 -27 5 -5 6 -8 4 -8 -5 0 -13
-1 -13 -10 0 -7 11 -10 11 -10 2 0 -7 -5 -10 -11 -7 -17 11 -59 13 -65 3 -4
-6 -10 -5 -15 3 -7 11 -9 11 -9 -1 0 -13 -1 -13 -10 0 -7 11 -10 11 -10 2 0
-10 -5 -10 -21 -1 -16 8 -20 8 -14 -1 6 -9 2 -9 -14 -1 -16 9 -21 9 -21 0 0
-8 -5 -7 -17 2 -11 10 -14 10 -9 2 4 -7 2 -13 -3 -13 -6 0 -11 6 -11 13 0 9
-2 9 -8 0 -5 -7 -13 -9 -21 -3 -8 4 -24 4 -37 0 -15 -6 -26 -5 -30 1 -4 6 -11
6 -20 -2 -11 -9 -14 -9 -14 1 0 10 -3 10 -15 0 -12 -10 -15 -10 -15 0 0 9 -4
9 -17 -1 -14 -12 -15 -12 -9 -1 7 11 4 12 -13 3 -16 -9 -21 -9 -21 1 0 9 -3 9
-10 -2 -9 -13 -10 -13 -10 0 0 13 -1 13 -10 0 -7 -11 -10 -11 -10 -2 0 10 -5
10 -20 2 -15 -8 -20 -8 -20 1 0 8 -4 8 -15 -1 -12 -10 -15 -10 -15 1 0 9 -3
10 -8 4 -10 -14 -32 -17 -32 -4 0 8 -6 7 -17 -2 -15 -12 -16 -12 -8 1 8 13 7
13 -8 1 -14 -11 -17 -11 -17 0 0 12 -2 12 -9 0 -7 -11 -9 -11 -14 0 -4 11 -6
11 -6 1 -1 -10 -6 -10 -22 -1 -16 8 -20 8 -14 -1 6 -9 2 -9 -14 -1 -16 9 -21
9 -21 0 0 -8 -5 -7 -17 2 -11 10 -14 10 -9 2 4 -7 3 -13 -3 -13 -5 0 -12 6
-14 13 -4 9 -6 9 -6 -1 -1 -7 -6 -10 -12 -7 -17 11 -59 13 -65 3 -4 -6 -10 -5
-15 3 -7 11 -9 11 -9 -1 0 -13 -1 -13 -10 0 -7 11 -10 11 -10 2 0 -10 -5 -10
-21 -1 -16 8 -20 8 -14 -1 6 -9 2 -9 -14 -1 -16 9 -21 9 -21 0 0 -8 -5 -7 -17
2 -11 10 -14 10 -9 2 4 -7 3 -13 -3 -13 -5 0 -12 6 -14 13 -4 9 -6 9 -6 -1 -1
-8 -7 -10 -18 -5 -22 10 -44 10 -60 0 -8 -5 -13 -3 -13 5 0 9 -3 9 -10 -2 -9
-13 -10 -13 -10 0 0 12 -2 12 -9 1 -6 -9 -10 -10 -16 -2 -5 9 -10 9 -21 0 -11
-9 -14 -9 -14 1 0 10 -3 10 -15 0 -12 -10 -15 -10 -15 1 0 9 -3 10 -8 4 -8
-12 -27 -13 -38 -3 -4 4 -13 3 -21 -3 -10 -9 -13 -8 -13 1 0 10 -3 10 -15 0
-12 -10 -15 -10 -15 0 0 9 -4 9 -17 -1 -14 -12 -15 -12 -9 -1 7 11 4 12 -13 3
-16 -9 -21 -9 -21 1 0 9 -3 9 -10 -2 -9 -13 -10 -13 -10 0 0 13 -1 13 -10 0
-7 -11 -10 -11 -10 -2 0 10 -5 10 -20 2 -15 -8 -20 -8 -20 1 0 8 -4 8 -15 -1
-12 -10 -15 -10 -15 1 0 9 -3 10 -8 4 -10 -14 -32 -17 -32 -4 0 8 -4 8 -14 0
-11 -9 -15 -9 -19 1 -4 11 -6 11 -6 0 -1 -8 -7 -10 -18 -5 -22 10 -44 10 -60
0 -8 -5 -13 -3 -13 5 0 9 -3 9 -10 -2 -9 -13 -10 -13 -10 0 0 9 -3 11 -8 5 -9
-13 -32 -18 -32 -7 0 4 -12 7 -27 6 -16 -1 -28 -3 -28 -4 0 -7 -36 -6 -41 1
-3 5 -10 9 -15 9 -6 0 -7 -5 -4 -10 8 -13 -18 -8 -27 5 -5 6 -8 4 -8 -5 0 -13
-1 -13 -10 0 -7 11 -10 11 -10 2 0 -7 -5 -10 -11 -7 -17 11 -59 13 -65 3 -4
-6 -10 -5 -15 3 -7 11 -9 11 -9 -1 0 -13 -1 -13 -10 0 -7 11 -10 11 -10 2 0
-10 -5 -10 -21 -1 -16 8 -20 8 -14 -1 6 -9 2 -9 -14 -1 -16 9 -21 9 -21 0 0
-8 -5 -7 -17 2 -11 10 -14 10 -9 2 4 -7 2 -13 -3 -13 -6 0 -11 6 -11 13 0 9
-2 9 -8 0 -5 -7 -13 -9 -21 -3 -8 4 -24 4 -37 0 -15 -6 -26 -5 -30 1 -4 6 -11
6 -20 -2 -11 -9 -14 -9 -14 1 0 10 -3 10 -15 0 -12 -10 -15 -10 -15 0 0 9 -4
9 -17 -1 -14 -12 -15 -12 -9 -1 7 11 4 12 -13 3 -16 -9 -21 -9 -21 1 0 9 -3 9
-10 -2 -9 -13 -10 -13 -10 0 0 13 -1 13 -10 0 -7 -11 -10 -11 -10 -2 0 10 -5
10 -20 2 -15 -8 -20 -8 -20 1 0 8 -4 8 -15 -1 -12 -10 -15 -10 -15 1 0 9 -3
10 -8 4 -10 -14 -32 -17 -32 -4 0 8 -6 7 -17 -2 -15 -12 -16 -12 -8 1 8 13 7
13 -8 1 -14 -11 -17 -11 -17 0 0 12 -2 12 -9 0 -7 -11 -9 -11 -14 0 -4 11 -6
11 -6 1 -1 -10 -6 -10 -22 -1 -16 8 -20 8 -14 -1 6 -9 2 -9 -14 -1 -16 9 -21
9 -21 0 0 -8 -5 -7 -17 2 -11 10 -14 10 -9 2 4 -7 3 -13 -3 -13 -5 0 -12 6
-14 13 -4 9 -6 9 -6 -1 -1 -7 -6 -10 -12 -7 -17 11 -59 13 -65 3 -4 -6 -10 -5
-15 3 -7 11 -9 11 -9 -1 0 -13 -1 -13 -10 0 -7 11 -10 11 -10 2 0 -10 -5 -10
-21 -1 -16 8 -20 8 -14 -1 6 -9 2 -9 -14 -1 -16 9 -21 9 -21 0 0 -8 -5 -7 -17
2 -11 10 -14 10 -9 2 4 -7 3 -13 -3 -13 -5 0 -12 6 -14 13 -4 9 -6 9 -6 -1 -1
-8 -7 -10 -18 -5 -22 10 -44 10 -60 0 -8 -5 -13 -3 -13 5 0 9 -3 9 -10 -2 -9
-13 -10 -13 -10 0 0 12 -2 12 -9 1 -6 -9 -10 -10 -16 -2 -5 9 -10 9 -21 0 -11
-9 -14 -9 -14 1 0 10 -3 10 -15 0 -12 -10 -15 -10 -15 1 0 9 -3 10 -8 4 -8
-12 -27 -13 -38 -3 -4 4 -13 3 -21 -3 -10 -9 -13 -8 -13 1 0 10 -3 10 -15 0
-12 -10 -15 -10 -15 0 0 9 -4 9 -17 -1 -14 -12 -15 -12 -9 -1 7 11 4 12 -13 3
-16 -9 -21 -9 -21 1 0 9 -3 9 -10 -2 -9 -13 -10 -13 -10 0 0 13 -1 13 -10 0
-7 -11 -10 -11 -10 -2 0 10 -5 10 -20 2 -15 -8 -20 -8 -20 1 0 8 -4 8 -15 -1
-12 -10 -15 -10 -15 1 0 9 -3 10 -8 4 -10 -14 -32 -17 -32 -4 0 8 -4 8 -14 0
-11 -9 -15 -9 -19 1 -4 11 -6 11 -6 0 -1 -8 -7 -10 -18 -5 -22 10 -44 10 -60
0 -8 -5 -13 -3 -13 5 0 9 -3 9 -10 -2 -9 -13 -10 -13 -10 0 0 9 -3 11 -8 5 -9
-13 -32 -18 -32 -7 0 4 -12 7 -27 6 -16 -1 -28 -3 -28 -4 0 -7 -36 -6 -41 1
-3 5 -10 9 -15 9 -6 0 -7 -5 -4 -10 8 -12 -17 -9 -26 4 -4 4 -10 3 -13 -3z
m8278 -6036 c-4 -8 -11 -12 -16 -9 -6 4 -5 10 3 15 19 12 19 11 13 -6z m6
-2259 c0 -3 -4 -8 -10 -11 -5 -3 -10 -1 -10 4 0 6 5 11 10 11 6 0 10 -2 10 -4z
m-8303 -21 c0 -8 -4 -12 -9 -9 -5 3 -6 10 -3 15 9 13 12 11 12 -6z"/>
<path d="M8593 7445 c0 -8 4 -15 9 -15 4 0 8 4 8 9 0 6 -4 12 -8 15 -5 3 -9
-1 -9 -9z"/>
<path d="M8593 5525 c0 -8 4 -15 9 -15 4 0 8 4 8 9 0 6 -4 12 -8 15 -5 3 -9
-1 -9 -9z"/>
</g>
</svg>
